<?xml version="1.0" encoding="UTF-8"?><svg id="Layer_2" xmlns="http://www.w3.org/2000/svg" viewBox="0 0 137.27 37.15"><defs><style>.cls-1{fill:#f8b716;}.cls-2{fill:#231f20;}</style></defs><g id="Layer_1-2"><g><path class="cls-2" d="M11.85,33.75c.48-.09,.53-.37,1.14-.94,.61-.58,3.09-3.83,3.09-3.83,0,0,1.35,1.67,3.5,3.65l.67,.6s-.15,1.4,.35,2.96h-.02c-2.19,1.28-4.89,1.28-7.09,0l-4.36-2.52c2.22,.12,2.65,.08,2.72,.06Z"/><path class="cls-2" d="M13.95,18.71c-.4-.72-1.33-2.78-1.33-2.78l-.44-1.36s.8,.02,2.62-.35l.05,5.4s-.5-.19-.9-.92Z"/><path class="cls-1" d="M10.19,31.08s-1.9-.59-4.52,.57c-.01,0-.02,0-.03,.01l-2.1-1.21c-.47-.27-.9-.59-1.29-.96H11.01c-.48,1.02-.81,1.58-.81,1.58Z"/><path class="cls-2" d="M18.81,24.45s.38-1.51,.39-1.58c.08-.53,.79-2.96,.79-2.96,0,0,2.05-1.12,3.28-1.84s1.22-.62,1.25-1.2l-.16-.23s-.03-.34-.29-.45c-.04-.02-.08-.03-.1-.04-.01-.06-.1-.4-.34-.37-.27,.04-1.04,.46-1.13,.87s.33,.62-.38,.83c-.71,.21-1.7,.45-1.7,.45,0,0,.59-2.31,.54-3.45-.04-1.14-.33-1.45-.61-2.08-.29-.62,.17-1.16,.38-1.14,.28,.04,.48,.05,.62,.06,.44,.06,.72-.06,.79-.3,.09-.31,.1-.43,.1-.43l.19-.52s.41,.07,.49-.02c.08-.09-.36-.54-.37-.98s.2-.52,.2-.52c0,0,.21-.88,.19-1.39-.04-.78-1.6-1.95-3.22-1.46-.66,.2-.98,.76-1.16,1.31H3.03c.17-.12,.34-.23,.52-.33L13.49,.95c2.19-1.27,4.89-1.27,7.09,0l9.95,5.74c2.19,1.27,3.54,3.61,3.54,6.14v11.49c0,2.53-1.35,4.87-3.54,6.14l-7.05,4.07c-.11-.75-.17-1.3-.17-1.3,0,0,.32-1.38-.16-2.01-.48-.63-3.45-5.15-4.34-6.77Z"/><path class="cls-1" d="M18.4,9.08h-7.6c-.17,0-.3,.14-.3,.3s.14,.3,.3,.3h7.64c0,.07,0,.13-.01,.16-.41,1.06-.59,1.28-1.16,1.18-.56-.09-1.02-.07-1.41,0H.23c.3-1.15,.89-2.19,1.7-3.05H18.38c-.03,.4,0,.78,.02,1.1Z"/><path class="cls-2" d="M.05,11.97H13.69c-1.04,.35-3.17,.89-3.92,1.59h-3.93c-.17,0-.3,.14-.3,.3s.14,.3,.3,.3h3.85c.09,.27,.26,.64,.56,1.01,.02,.03,.05,.07,.08,.11H0v-2.45c0-.29,.02-.58,.05-.86Z"/><path class="cls-1" d="M12.15,18.07H1.93c-.17,0-.3,.14-.3,.3s.14,.3,.3,.3H12.53c.27,.43,.45,.73,.45,.73,0,0,0,.18,.04,.42H0v-3.6H10.98c.37,.57,.81,1.25,1.18,1.84Z"/><path class="cls-1" d="M13.28,20.75c.08,.18,.19,.34,.33,.43,.56,.39,.87,.2,.8,.52-.05,.23-.11,.43-.17,.61H6.76c-.17,0-.3,.14-.3,.3s.14,.3,.3,.3h7.19c-.19,.35-.4,.69-.6,1.2H0v-3.35H13.13c.05,0,.1-.01,.14-.02Z"/><path class="cls-2" d="M13.23,25.8s-.21,.32-.51,.78h-2.93c-.17,0-.3,.14-.3,.3s.14,.3,.3,.3h2.55c-.28,.44-.58,.93-.83,1.37H1.41c-.75-1.01-1.23-2.21-1.37-3.49H13.17c0,.39,.05,.73,.05,.73Z"/></g><g><path class="cls-2" d="M63.53,17.6h8.17v17.05h-6.4v-2.01c-2.34,1.87-5.33,2.66-8.78,2.66-9.01,0-16.58-5.89-16.58-16.67S47.56,1.3,58.16,1.3c6.12,0,11.07,2.1,14.29,5.98l-5.89,5.32c-2.24-2.48-4.81-3.64-7.94-3.64-5.6,0-9.34,3.69-9.34,9.62,0,6.31,3.88,9.25,8.41,9.25,2.15,0,4.25-.61,5.84-1.87v-8.36Z"/><path class="cls-2" d="M75.3,31.7l3.04-6.82c2.9,1.92,7.01,3.22,10.79,3.22s5.32-1.07,5.32-2.66c0-5.18-18.59-1.4-18.59-13.55,0-5.84,4.76-10.6,14.48-10.6,4.25,0,8.64,.98,11.86,2.85l-2.85,6.87c-3.13-1.68-6.21-2.52-9.06-2.52-3.88,0-5.28,1.31-5.28,2.94,0,5,18.54,1.26,18.54,13.31,0,5.7-4.76,10.56-14.48,10.56-5.37,0-10.7-1.45-13.78-3.6Z"/><path class="cls-1" d="M137.27,14.05c0,7.43-5.61,12.05-14.53,12.05h-5.7v8.55h-9.25V1.95h14.95c8.92,0,14.53,4.62,14.53,12.1Zm-9.34,0c0-3.04-1.92-4.81-5.75-4.81h-5.14v9.58h5.14c3.83,0,5.75-1.77,5.75-4.76Z"/></g></g></svg>